<?xml version="1.0" encoding="UTF-8" standalone="no"?>
<!-- Created with Inkscape (http://www.inkscape.org/) -->

<svg
   xmlns:dc="http://purl.org/dc/elements/1.1/"
   xmlns:cc="http://creativecommons.org/ns#"
   xmlns:rdf="http://www.w3.org/1999/02/22-rdf-syntax-ns#"
   xmlns:svg="http://www.w3.org/2000/svg"
   xmlns="http://www.w3.org/2000/svg"
   xmlns:sodipodi="http://sodipodi.sourceforge.net/DTD/sodipodi-0.dtd"
   xmlns:inkscape="http://www.inkscape.org/namespaces/inkscape"
   version="1.1"
   id="svg2"
   xml:space="preserve"
   width="134"
   height="134"
   viewBox="0 0 134 134"
   sodipodi:docname="Logo Vector Black 7-4-20.svg"
   inkscape:version="0.92.4 (5da689c313, 2019-01-14)"><metadata
     id="metadata8"><rdf:RDF><cc:Work
         rdf:about=""><dc:format>image/svg+xml</dc:format><dc:type
           rdf:resource="http://purl.org/dc/dcmitype/StillImage" /><dc:title></dc:title></cc:Work></rdf:RDF></metadata><defs
     id="defs6"><clipPath
       clipPathUnits="userSpaceOnUse"
       id="clipPath30"><path
         d="M 0,792 H 612 V 0 H 0 Z"
         id="path28"
         inkscape:connector-curvature="0" /></clipPath><clipPath
       clipPathUnits="userSpaceOnUse"
       id="clipPath94"><path
         d="M 0,792 H 612 V 0 H 0 Z"
         id="path92"
         inkscape:connector-curvature="0" /></clipPath></defs><sodipodi:namedview
     pagecolor="#ffffff"
     bordercolor="#666666"
     borderopacity="1"
     objecttolerance="10"
     gridtolerance="10"
     guidetolerance="10"
     inkscape:pageopacity="0"
     inkscape:pageshadow="2"
     inkscape:window-width="1920"
     inkscape:window-height="1001"
     id="namedview4"
     showgrid="false"
     inkscape:zoom="3.5757576"
     inkscape:cx="147.99621"
     inkscape:cy="81.405167"
     inkscape:window-x="-9"
     inkscape:window-y="-9"
     inkscape:window-maximized="1"
     inkscape:current-layer="g10" /><g
     id="g10"
     inkscape:groupmode="layer"
     inkscape:label="LogoDesign 12-21-19"
     transform="matrix(1.3333333,0,0,-1.3333333,0,134)"><g
       id="g80"
       transform="translate(66.459001,7.2520013)"><path
         d="m 0,0 c 0.07,0.036 0.15,0.072 0.219,0.108 2.809,1.492 4.95,3.491 6.419,5.997 1.468,2.507 2.204,5.165 2.204,7.975 0,3.198 -1.08,6.332 -3.241,9.401 -2.982,4.236 -8.428,9.336 -16.339,15.302 -7.953,6.006 -12.902,10.35 -14.846,13.03 -3.372,4.496 -5.059,9.358 -5.059,14.589 0,4.149 0.996,7.931 2.983,11.346 1.988,3.414 4.787,6.105 8.397,8.072 2.717,1.481 5.613,2.403 8.687,2.769 C 12.141,85.811 29.739,66.465 29.739,42.998 29.739,23.329 17.376,6.554 0,0 m -36.349,12.265 c -1.586,-2.79 -3.358,-5.294 -5.308,-7.522 -12.355,8.236 -20.499,22.292 -20.499,38.255 0,13.224 5.595,25.135 14.537,33.519 3.748,-2.855 6.971,-6.328 9.65,-10.44 5.208,-7.996 7.812,-17.527 7.812,-28.592 0,-9.552 -2.064,-17.959 -6.192,-25.22 m 20.141,78.733 c -27.427,0 -49.66,-21.491 -49.66,-48 0,-26.51 22.233,-48 49.66,-48 27.425,0 49.658,21.49 49.658,48 0,26.509 -22.233,48 -49.658,48"
         style="fill:#100f0d;fill-opacity:1;fill-rule:nonzero;stroke:none"
         id="path82"
         inkscape:connector-curvature="0" /></g></g></svg>