<?xml version="1.0" encoding="UTF-8" standalone="no"?>
<!-- Created with Inkscape (http://www.inkscape.org/) -->

<svg
   xmlns:dc="http://purl.org/dc/elements/1.1/"
   xmlns:cc="http://creativecommons.org/ns#"
   xmlns:rdf="http://www.w3.org/1999/02/22-rdf-syntax-ns#"
   xmlns:svg="http://www.w3.org/2000/svg"
   xmlns="http://www.w3.org/2000/svg"
   xmlns:sodipodi="http://sodipodi.sourceforge.net/DTD/sodipodi-0.dtd"
   xmlns:inkscape="http://www.inkscape.org/namespaces/inkscape"
   version="1.1"
   id="svg2"
   xml:space="preserve"
   width="816"
   height="1056"
   viewBox="0 0 816 1056"
   sodipodi:docname="SchwabDesignResume.svg"
   inkscape:version="0.92.4 (5da689c313, 2019-01-14)"><metadata
     id="metadata8"><rdf:RDF><cc:Work
         rdf:about=""><dc:format>image/svg+xml</dc:format><dc:type
           rdf:resource="http://purl.org/dc/dcmitype/StillImage" /><dc:title /></cc:Work></rdf:RDF></metadata><defs
     id="defs6"><clipPath
       clipPathUnits="userSpaceOnUse"
       id="clipPath22"><path
         d="M 405,567.121 H 594 V 757 H 405 Z"
         id="path20"
         inkscape:connector-curvature="0" /></clipPath><clipPath
       clipPathUnits="userSpaceOnUse"
       id="clipPath32"><path
         d="M 0,0 H 612 V 792 H 0 Z"
         id="path30"
         inkscape:connector-curvature="0" /></clipPath><clipPath
       clipPathUnits="userSpaceOnUse"
       id="clipPath44"><path
         d="M 0,0 H 612 V 792 H 0 Z"
         id="path42"
         inkscape:connector-curvature="0" /></clipPath><clipPath
       clipPathUnits="userSpaceOnUse"
       id="clipPath74"><path
         d="M 405,288.039 H 594 V 541 H 405 Z"
         id="path72"
         inkscape:connector-curvature="0" /></clipPath><clipPath
       clipPathUnits="userSpaceOnUse"
       id="clipPath84"><path
         d="M 0,0 H 612 V 792 H 0 Z"
         id="path82"
         inkscape:connector-curvature="0" /></clipPath><clipPath
       clipPathUnits="userSpaceOnUse"
       id="clipPath96"><path
         d="M 0,0 H 612 V 792 H 0 Z"
         id="path94"
         inkscape:connector-curvature="0" /></clipPath><clipPath
       clipPathUnits="userSpaceOnUse"
       id="clipPath134"><path
         d="M 0,0 H 612 V 792 H 0 Z"
         id="path132"
         inkscape:connector-curvature="0" /></clipPath><clipPath
       clipPathUnits="userSpaceOnUse"
       id="clipPath144"><path
         d="M 405,170.379 H 608.641 V 262 H 405 Z"
         id="path142"
         inkscape:connector-curvature="0" /></clipPath><clipPath
       clipPathUnits="userSpaceOnUse"
       id="clipPath154"><path
         d="M 0,0 H 612 V 792 H 0 Z"
         id="path152"
         inkscape:connector-curvature="0" /></clipPath><clipPath
       clipPathUnits="userSpaceOnUse"
       id="clipPath166"><path
         d="M 0,0 H 612 V 792 H 0 Z"
         id="path164"
         inkscape:connector-curvature="0" /></clipPath><clipPath
       clipPathUnits="userSpaceOnUse"
       id="clipPath358"><path
         d="M 0,0 H 612 V 792 H 0 Z"
         id="path356"
         inkscape:connector-curvature="0" /></clipPath></defs><sodipodi:namedview
     pagecolor="#ffffff"
     bordercolor="#666666"
     borderopacity="1"
     objecttolerance="10"
     gridtolerance="10"
     guidetolerance="10"
     inkscape:pageopacity="0"
     inkscape:pageshadow="2"
     inkscape:window-width="1920"
     inkscape:window-height="1001"
     id="namedview4"
     showgrid="false"
     inkscape:zoom="0.63211061"
     inkscape:cx="565.02287"
     inkscape:cy="515.52532"
     inkscape:window-x="-9"
     inkscape:window-y="-9"
     inkscape:window-maximized="1"
     inkscape:current-layer="g10" /><g
     id="g10"
     inkscape:groupmode="layer"
     inkscape:label="SchwabDesignResume"
     transform="matrix(1.3333333,0,0,1.3333333,0,2.64e-5)">
































<g
   id="g1151"><rect
     y="0.037061382"
     x="0.037078165"
     height="791.96295"
     width="611.96295"
     id="rect991"
     style="opacity:1;vector-effect:none;fill:#ffffff;fill-opacity:1;stroke:none;stroke-width:0.67861378;stroke-linecap:round;stroke-linejoin:miter;stroke-miterlimit:3.99722219;stroke-dasharray:none;stroke-dashoffset:0;stroke-opacity:1;paint-order:markers stroke fill" /><g
     id="g12"><path
       inkscape:connector-curvature="0"
       id="path14"
       style="fill:#f26923;fill-opacity:1;fill-rule:nonzero;stroke:none"
       d="M 405,0 H 612 V 792 H 405 Z" /></g><g
     id="g330"
     transform="scale(1,-1)"><path
       d="M 27,-145 H 405"
       style="fill:none;stroke:#f26923;stroke-width:2;stroke-linecap:butt;stroke-linejoin:miter;stroke-miterlimit:10;stroke-dasharray:none;stroke-opacity:1"
       id="path332"
       inkscape:connector-curvature="0" /></g><g
     id="g334"
     transform="scale(1,-1)"><path
       d="M 27.145,-541 H 405"
       style="fill:none;stroke:#f26923;stroke-width:2;stroke-linecap:butt;stroke-linejoin:miter;stroke-miterlimit:10;stroke-dasharray:none;stroke-opacity:1"
       id="path336"
       inkscape:connector-curvature="0" /></g><g
     id="g338"
     transform="scale(1,-1)"><path
       d="M 405,-262 H 585"
       style="fill:none;stroke:#ffffff;stroke-width:2;stroke-linecap:butt;stroke-linejoin:miter;stroke-miterlimit:10;stroke-dasharray:none;stroke-opacity:1"
       id="path340"
       inkscape:connector-curvature="0" /></g><g
     id="g342"
     transform="scale(1,-1)"><path
       d="M 405,-145 H 585"
       style="fill:none;stroke:#f7fcfe;stroke-width:2;stroke-linecap:butt;stroke-linejoin:miter;stroke-miterlimit:10;stroke-dasharray:none;stroke-opacity:1"
       id="path344"
       inkscape:connector-curvature="0" /></g><g
     id="g346"
     transform="scale(1,-1)"><path
       d="M 405,-541 H 585"
       style="fill:none;stroke:#ffffff;stroke-width:2;stroke-linecap:butt;stroke-linejoin:miter;stroke-miterlimit:10;stroke-dasharray:none;stroke-opacity:1"
       id="path348"
       inkscape:connector-curvature="0" /></g><g
     id="g350"><g
       id="g352"><g
         id="g354"
         clip-path="url(#clipPath358)"><g
           id="g360"><path
             d="m 495,54.086 c -17.949,0 -32.5,14.066 -32.5,31.414 0,17.348 14.551,31.414 32.5,31.414 17.949,0 32.5,-14.066 32.5,-31.414 0,-17.348 -14.551,-31.414 -32.5,-31.414 m -13.18,51.527 c -1.039,1.825 -2.199,3.465 -3.472,4.922 -8.086,-5.39 -13.418,-14.59 -13.418,-25.035 0,-8.656 3.664,-16.449 9.515,-21.937 2.45,1.871 4.559,4.14 6.313,6.832 3.41,5.234 5.113,11.472 5.113,18.714 0,6.25 -1.351,11.75 -4.051,16.504 m 23.785,8.028 c 0.047,-0.024 0.102,-0.047 0.145,-0.071 1.84,-0.976 3.238,-2.285 4.203,-3.925 0.961,-1.641 1.442,-3.379 1.442,-5.219 0,-2.094 -0.707,-4.145 -2.122,-6.153 -1.953,-2.773 -5.515,-6.109 -10.695,-10.015 -5.203,-3.93 -8.441,-6.774 -9.715,-8.528 -2.207,-2.941 -3.308,-6.125 -3.308,-9.546 0,-2.715 0.648,-5.192 1.953,-7.426 1.301,-2.235 3.133,-3.996 5.492,-5.281 1.777,-0.973 3.676,-1.575 5.688,-1.813 14.867,1.816 26.382,14.477 26.382,29.836 0,12.871 -8.09,23.852 -19.465,28.141"
             style="fill:#ffffff;fill-opacity:1;fill-rule:nonzero;stroke:none"
             id="path362"
             inkscape:connector-curvature="0" /></g></g></g></g><text
     y="96.250031"
     x="100.6377"
     style="font-variant:normal;font-weight:normal;font-size:34px;font-family:'Century Gothic';-inkscape-font-specification:CenturyGothic;writing-mode:lr-tb;fill:#f26923;fill-opacity:1;fill-rule:nonzero;stroke:none"
     id="text328"><tspan
       x="100.6377 125.9337 149.1557 169.86169 176.6617 198.72769 205.52769 214.80969 231.74168 253.70569 274.41171 302.66571 325.8877"
       y="96.250031"
       sodipodi:role="line"
       id="tspan326">Daniel Schwab</tspan></text>
<text
     y="163.07883"
     x="114.23916"
     style="font-variant:normal;font-weight:300;font-size:16px;font-family:'Noto Sans Light';-inkscape-font-specification:NotoSans-Light;writing-mode:lr-tb;fill:#f26923;fill-opacity:1;fill-rule:nonzero;stroke:none"
     id="text324"><tspan
       x="114.23916 123.24716 137.72716 147.48717 151.37517 160.65517 168.31917 182.79916 191.80716 201.50316"
       y="163.07883"
       sodipodi:role="line"
       id="tspan322">Employment</tspan></text>
<text
     y="190.50781"
     x="88.981796"
     style="font-variant:normal;font-weight:bold;font-size:12px;font-family:'Noto Sans';-inkscape-font-specification:NotoSans-Bold;writing-mode:lr-tb;fill:#000000;fill-opacity:1;fill-rule:nonzero;stroke:none"
     id="text320"><tspan
       x="88.981796 96.901794 103.6218 110.2338 113.3538 120.07379 127.0098 134.8938 138.55379 146.1498 149.8098 155.01779 158.13779 164.74979 171.8418 177.28979 184.1178 187.77779 193.94579 201.0378"
       y="190.50781"
       sodipodi:role="line"
       id="tspan318">RES Exhibit Services</tspan></text>
<text
     y="208.50781"
     x="124.894"
     style="font-variant:normal;font-weight:normal;font-size:9px;font-family:'Century Gothic';-inkscape-font-specification:CenturyGothic;writing-mode:lr-tb;fill:#000000;fill-opacity:1;fill-rule:nonzero;stroke:none"
     id="text316"><tspan
       x="124.894 129.304 134.84801 140.41 146.332 148.91499 153.97301 159.049 164.125 169.201 173.791 180.019 182.8 188.722 192.304 198.226 203.78799"
       y="208.50781"
       sodipodi:role="line"
       id="tspan314">June 2018–present</tspan></text>
<text
     y="190.50781"
     x="215.99998"
     style="font-variant:normal;font-weight:normal;font-size:12px;font-family:'Noto Sans';-inkscape-font-specification:NotoSans-Regular;writing-mode:lr-tb;fill:#000000;fill-opacity:1;fill-rule:nonzero;stroke:none"
     id="text312"><tspan
       x="215.99998 223.66798 229.41599 235.16399 242.42398 248.18398 251.27998 258.01199 262.34399 269.11197 272.23196 278.90399 285.25198 292.66797 295.76398 303.14398 306.23999 310.57199 313.69199 322.452 329.21997 334.96799 338.064 345.44397 352.85999 359.62799"
       y="190.50781"
       sodipodi:role="line"
       id="tspan310">Associate Exhibit Designer</tspan></text>
<text
     y="208.50781"
     x="215.99998"
     style="font-variant:normal;font-weight:normal;font-size:9px;font-family:'Century Gothic';-inkscape-font-specification:CenturyGothic;writing-mode:lr-tb;fill:#000000;fill-opacity:1;fill-rule:nonzero;stroke:none"
     id="text308"><tspan
       x="215.99998 222.78598 228.70798 232.28998 234.17998 240.30898 245.87099 248.43597 254.67297 260.23499 266.48999 269.05499 275.02197 281.24997 284.37299 286.26297 294.77698 296.66699 300.564 306.48599 309.05099 312.19199 314.97299 321.20999 327.46497 333.38699 336.96899 342.53098 348.49799 356.06699 358.63199 364.55399 368.94598 374.50797 376.39798 382.62598 384.51599 387.63898 391.13098"
       y="208.50781"
       sodipodi:role="line"
       id="tspan300">Design and optimize tradeshow exhibits </tspan><tspan
       x="215.99998 218.89798 224.86497 227.64598 230.22897 235.79099 241.71298 249.28198 251.84698 258.08398 263.64597 269.90097 272.46597 278.38797 282.77997 284.66998 288.25198 291.37497 293.26498 298.827 304.95599 307.521 313.41599 315.30597 317.19598 323.11798 328.67999 331.80298 335.38498 337.94998 340.51498 347.90399 353.87097 355.76099 357.65097 363.88797 370.11597 376.08298 378.86398 385.10098 388.22397 394.06497"
       y="226.50781"
       sodipodi:role="line"
       id="tspan302">for new and existing clients. Collaborate </tspan><tspan
       x="215.99998 222.22798 228.14998 231.27298 238.84198 244.76398 250.68597 256.24799 258.83099 265.06799 271.00797 277.21799 283.45499 286.25397 289.37698 297.89099 303.81299 309.37497 312.49799 316.07999 318.64499 321.76797 327.73499 330.31799 338.83197 344.75397 350.67596 353.79898 356.36398 362.61899 368.54099 372.12299 374.01297 380.14197 385.62299"
       y="244.50781"
       sodipodi:role="line"
       id="tspan304">between departments to meet design </tspan><tspan
       x="215.99998 219.58199 222.70499 228.94199 234.50398 240.75899 246.99599 249.77698 256.03198 259.61398 262.17899 268.41599 273.97797 280.23297 282.79797 288.69299 290.58298 292.47299 298.39499 303.95697 307.07999 309.64499 315.56699 319.95898 326.18698 332.10898 338.00397 341.12698 347.36398 350.48697 352.37698 358.34396 363.92398 367.48798"
       y="262.50781"
       sodipodi:role="line"
       id="tspan306">standards and client expectations.</tspan></text>
<text
     y="289.50781"
     x="88.981796"
     style="font-variant:normal;font-weight:bold;font-size:12px;font-family:'Noto Sans';-inkscape-font-specification:NotoSans-Bold;writing-mode:lr-tb;fill:#000000;fill-opacity:1;fill-rule:nonzero;stroke:none"
     id="text298"><tspan
       x="88.981796 96.901794 103.6218 110.2338 113.3538 120.07379 127.0098 134.8938 138.55379 146.1498 149.8098 155.01779 158.13779 164.74979 171.8418 177.28979 184.1178 187.77779 193.94579 201.0378"
       y="289.50781"
       sodipodi:role="line"
       id="tspan296">RES Exhibit Services</tspan></text>
<text
     y="307.50781"
     x="156.9823"
     style="font-variant:normal;font-weight:normal;font-size:9px;font-family:'Century Gothic';-inkscape-font-specification:CenturyGothic;writing-mode:lr-tb;fill:#000000;fill-opacity:1;fill-rule:nonzero;stroke:none"
     id="text294"><tspan
       x="156.9823 161.55431 167.7823 170.56329 172.45329 178.0153 184.1443 186.7093 191.78531 196.8613 201.9373"
       y="307.50781"
       sodipodi:role="line"
       id="tspan292">Spring 2018</tspan></text>
<text
     y="289.50781"
     x="215.99998"
     style="font-variant:normal;font-weight:normal;font-size:12px;font-family:'Noto Sans';-inkscape-font-specification:NotoSans-Regular;writing-mode:lr-tb;fill:#000000;fill-opacity:1;fill-rule:nonzero;stroke:none"
     id="text290"><tspan
       x="215.99998 226.88399 233.65198 237.98398 244.71597 252.09598 256.81198 264.07199 267.16797 273.93597 279.69598 284.02798 287.14798 293.81998 300.16797 307.58398 310.67999 318.05997 321.15598 325.48798 328.60797 337.36798 344.13599 349.88397 352.97998 360.35999 367.77597 374.54398"
       y="289.50781"
       sodipodi:role="line"
       id="tspan288">Metaproject Exhibit Designer</tspan></text>
<text
     y="307.50781"
     x="215.99998"
     style="font-variant:normal;font-weight:normal;font-size:9px;font-family:'Century Gothic';-inkscape-font-specification:CenturyGothic;writing-mode:lr-tb;fill:#000000;fill-opacity:1;fill-rule:nonzero;stroke:none"
     id="text286"><tspan
       x="215.99998 224.71198 230.67899 233.45998 238.06798 243.98997 250.24498 252.80998 260.37897 262.25098 265.39197 270.95398 273.51898 276.64197 282.20398 288.12598 290.69098 296.58597 302.16599 308.38498 310.27499 313.05597 315.63898 321.60599 324.50397 327.06897 330.19199 335.75397 341.67599 344.25897 349.79398 351.91797 355.82397 358.38898 365.77798 371.74496 373.63498 375.52496 381.44699 387.57599 393.41699"
       y="307.50781"
       sodipodi:role="line"
       id="tspan282">Worked with the chair of the RIT College </tspan><tspan
       x="215.99998 221.96698 224.86497 227.42998 234.21597 240.13799 243.71999 245.60999 251.73898 257.30096 259.86597 263.00699 268.97397 271.53897 276.61499 278.48697 282.06897 287.61298 293.84998 295.73999 297.62997 301.21198 307.13397 309.69897 315.93597 321.49799 324.06299 329.98499 334.37698 339.939 341.82898 348.05698 349.94699 353.06998 355.63498 358.53299 364.49997 367.29898 369.86398 371.98798 379.37698 383.81396 388.25098"
       y="325.50781"
       sodipodi:role="line"
       id="tspan284">of Design to visualise an exhibit for ICFF.</tspan></text>
<text
     y="352.50781"
     x="93.433197"
     style="font-variant:normal;font-weight:bold;font-size:12px;font-family:'Noto Sans';-inkscape-font-specification:NotoSans-Bold;writing-mode:lr-tb;fill:#000000;fill-opacity:1;fill-rule:nonzero;stroke:none"
     id="text280"><tspan
       x="93.433197 101.49719 108.3252 113.5332 120.9612 128.8452 131.96519 139.60919 147.0372 154.92119 162.80519 165.92519 174.80519 181.89719 187.86119 191.52119 199.11719"
       y="352.50781"
       sodipodi:role="line"
       id="tspan278">Byron Conn Design</tspan></text>
<text
     y="370.50781"
     x="149.1636"
     style="font-variant:normal;font-weight:normal;font-size:9px;font-family:'Century Gothic';-inkscape-font-specification:CenturyGothic;writing-mode:lr-tb;fill:#000000;fill-opacity:1;fill-rule:nonzero;stroke:none"
     id="text276"><tspan
       x="149.1636 153.6456 159.1086 167.5416 175.9476 181.7886 184.4886 186.9726 191.93159 196.9176 201.90359"
       y="370.50781"
       sodipodi:role="line"
       id="tspan274">Summer 2017</tspan></text>
<text
     y="352.50781"
     x="215.99998"
     style="font-variant:normal;font-weight:normal;font-size:12px;font-family:'Noto Sans';-inkscape-font-specification:NotoSans-Regular;writing-mode:lr-tb;fill:#000000;fill-opacity:1;fill-rule:nonzero;stroke:none"
     id="text272"><tspan
       x="215.99998 222.22798 229.64398 234.59998 242.01598 245.11198 249.44398 256.85999 261.57599 268.34399 271.46399 280.22397 286.99197 292.73999 295.83597 303.21597 310.63199 313.75198 317.81998 325.23599 329.56799 336.33597 341.29199"
       y="352.50781"
       sodipodi:role="line"
       id="tspan270">Furniture Design Intern</tspan></text>
<text
     y="370.50781"
     x="215.99998"
     style="font-variant:normal;font-weight:normal;font-size:9px;font-family:'Century Gothic';-inkscape-font-specification:CenturyGothic;writing-mode:lr-tb;fill:#000000;fill-opacity:1;fill-rule:nonzero;stroke:none"
     id="text268"><tspan
       x="215.99998 222.73198 224.62198 230.87698 236.79898 243.05399 245.61897 247.50899 253.07098 255.63599 258.75897 264.33899 270.26099 272.82599 279.08099 285.00299 288.58499 290.45697 296.60397 302.16599 304.73099 310.96799 316.52997 322.78497 325.34998 331.58698 335.16898 338.75098 344.67297 353.18698 359.39697 361.28699 366.20099 368.76599 374.75098 377.56796"
       y="370.50781"
       sodipodi:role="line"
       id="tspan264">Aided in the design and assembly of </tspan><tspan
       x="215.99998 218.89798 224.44199 227.22298 232.78497 234.67497 237.79797 243.35999 246.14098 252.06297 254.62798 257.52597 263.49298 266.27399 268.85696 274.39197 280.35898 286.25397 291.81598 297.73798 301.31998 304.44299 310.36499 313.146 315.72897 321.94797 324.74698 330.66898 336.90598 339.47098 345.36597 347.25598 349.12799 355.06796 360.62997 363.75299 367.33499"
       y="388.50781"
       sodipodi:role="line"
       id="tspan266">furniture for Rochester area clients.</tspan></text>
<text
     y="415.50781"
     x="136.285"
     style="font-variant:normal;font-weight:bold;font-size:12px;font-family:'Noto Sans';-inkscape-font-specification:NotoSans-Bold;writing-mode:lr-tb;fill:#000000;fill-opacity:1;fill-rule:nonzero;stroke:none"
     id="text262"><tspan
       x="136.285 139.94501 147.037 153.649 157.30901 169.093 176.689 180.349 184.009 188.653 192.313 199.405"
       y="415.50781"
       sodipodi:role="line"
       id="tspan260">ieSimplified</tspan></text>
<text
     id="text1288"
     y="433.38477"
     x="124.88943"
     style="font-style:normal;font-variant:normal;font-weight:normal;font-stretch:normal;font-size:12px;line-height:1.25;font-family:'Century Gothic';-inkscape-font-specification:'Century Gothic';font-variant-ligatures:normal;font-variant-caps:normal;font-variant-numeric:normal;font-feature-settings:normal;text-align:start;letter-spacing:0px;word-spacing:0px;writing-mode:lr-tb;text-anchor:start;fill:#000000;fill-opacity:1;stroke:none;stroke-width:0.75"
     xml:space="preserve"><tspan
       style="font-size:9px;stroke-width:0.75"
       y="433.38477"
       x="124.88943"
       id="tspan1286"
       sodipodi:role="line">January 2017–2018</tspan></text>
<text
     y="415.50781"
     x="215.99998"
     style="font-variant:normal;font-weight:normal;font-size:12px;font-family:'Noto Sans';-inkscape-font-specification:NotoSans-Regular;writing-mode:lr-tb;fill:#000000;fill-opacity:1;fill-rule:nonzero;stroke:none"
     id="text366"><tspan
       x="215.99998 226.91998 233.68797 241.06798 244.18797 252.94798 259.71597 265.46399 268.55997 275.93997 283.35599 290.12399 295.07999 298.19998 306.98398 310.10397 317.36398 322.07999 329.33997 336.71997 341.43597 348.16797 359.38797 370.60797 377.37598"
       y="415.50781"
       sodipodi:role="line"
       id="tspan364">Web Designer &amp; Programmer</tspan></text>
<text
     y="433.50781"
     x="215.99998"
     style="font-variant:normal;font-weight:normal;font-size:9px;font-family:'Century Gothic';-inkscape-font-specification:CenturyGothic;writing-mode:lr-tb;fill:#000000;fill-opacity:1;fill-rule:nonzero;stroke:none"
     id="text258"><tspan
       x="215.99998 222.78598 228.70798 232.28998 234.17998 240.30898 245.87099 251.79298 258.04797 260.61298 267.49799 270.06299 271.95297 280.46698 286.69498 289.47598 295.44299 300.51898 306.44098 312.69598 315.26099 321.15598 323.04599 324.93597 330.85797 336.41998 339.54297 342.12598 349.69498 355.61697 361.84497 365.40897 367.29898 370.42197 376.34396 379.92596 382.40997"
       y="433.50781"
       sodipodi:role="line"
       id="tspan252">Designed &amp; improved client websites. </tspan><tspan
       x="215.99998 223.91098 230.13898 233.26198 235.15198 243.66599 245.53798 249.45297 255.37498 261.62997 264.19498 270.16199 272.28598 274.85098 281.08798 286.64999 292.90497 295.46997 301.43698 307.008 309.57297 315.82797 321.74997 325.33197 327.20398 333.35098 338.91299"
       y="451.50781"
       sodipodi:role="line"
       id="tspan254">Optimized UI and UX design.</tspan><tspan
       y="0"
       x="215.99998"
       sodipodi:role="line"
       id="tspan256" /></text>
<text
     y="478.50781"
     x="71.917793"
     style="font-variant:normal;font-weight:bold;font-size:12px;font-family:'Noto Sans';-inkscape-font-specification:NotoSans-Bold;writing-mode:lr-tb;fill:#000000;fill-opacity:1;fill-rule:nonzero;stroke:none"
     id="text250"><tspan
       x="71.917793 80.197792 87.793793 93.001793 100.8858 106.84979 109.9698 117.61379 125.04179 132.9258 138.1338 143.3418 150.76979 154.42979 157.5498 164.1618 170.98979 176.9538 182.1618 189.2538 201.0378"
       y="478.50781"
       sodipodi:role="line"
       id="tspan248">Aptus Control Systems</tspan></text>
<text
     y="496.50781"
     x="148.2636"
     style="font-variant:normal;font-weight:normal;font-size:9px;font-family:'Century Gothic';-inkscape-font-specification:CenturyGothic;writing-mode:lr-tb;fill:#000000;fill-opacity:1;fill-rule:nonzero;stroke:none"
     id="text246"><tspan
       x="148.2636 152.8356 158.37959 166.8936 175.40759 181.32961 184.1106 186.6936 191.7516 196.82761 201.90359"
       y="496.50781"
       sodipodi:role="line"
       id="tspan244">Summer 2016</tspan></text>
<text
     y="478.50781"
     x="215.99998"
     style="font-variant:normal;font-weight:normal;font-size:12px;font-family:'Noto Sans';-inkscape-font-specification:NotoSans-Regular;writing-mode:lr-tb;fill:#000000;fill-opacity:1;fill-rule:nonzero;stroke:none"
     id="text242"><tspan
       x="215.99998 226.91998 233.68797 241.06798 244.18797 252.97198 256.09198 262.37997 269.63998 277.01999 284.27997 287.39999 296.15997 302.92798 308.67599 311.77197 319.15198"
       y="478.50781"
       sodipodi:role="line"
       id="tspan240">Web &amp; Logo Design</tspan></text>
<text
     y="496.50781"
     x="215.99998"
     style="font-variant:normal;font-weight:normal;font-size:9px;font-family:'Century Gothic';-inkscape-font-specification:CenturyGothic;writing-mode:lr-tb;fill:#000000;fill-opacity:1;fill-rule:nonzero;stroke:none"
     id="text238"><tspan
       x="215.99998 221.53497 227.45699 233.71198 239.63399 243.21597 245.10599 251.23499 256.79697 262.71899 268.97397 271.53897 273.42899 279.39597 285.52499 291.50998 294.07498 300.30298 306.53998 310.10397 316.03497 322.28098 324.86398 330.83099 336.39297 338.95798 344.85297 350.39697 353.97897 357.10199 363.06897 371.58298 377.50497 380.20499"
       y="496.50781"
       sodipodi:role="line"
       id="tspan232">Redesigned logo based on customer </tspan><tspan
       x="215.99998 218.89798 224.81998 230.74197 236.99698 243.22498 249.46198 255.35698 259.94699 262.51199 268.74899 274.31097 280.56598 283.13098 289.35898 292.13998 298.37698 303.939 310.19397 312.75897 314.64899 320.90399 326.82599 332.38797 335.52899 337.40097 340.54199 345.43799 348.02097 350.58597 357.37198 363.29398 366.85797 368.74799 374.87698 380.45697 386.37897 392.54398"
       y="514.50781"
       sodipodi:role="line"
       id="tspan234">feedback and brand identity. Designed </tspan><tspan
       x="215.99998 222.23698 227.79898 234.05399 236.61897 238.50899 247.02298 253.25098 255.14098 261.06299 269.57697 275.49899 281.06097 284.18399 290.10599 296.36099 298.92599 305.16299 307.72797 313.28998 319.22998 326.78098 329.36398 336.93298 342.85498 349.08298 352.64697 354.53699 357.65997 363.58197"
       y="532.50781"
       sodipodi:role="line"
       id="tspan236">and implemented a new website.</tspan></text>
<text
     y="559.11621"
     x="133.41104"
     style="font-variant:normal;font-weight:300;font-size:15.99999905px;font-family:'Noto Sans Light';-inkscape-font-specification:NotoSans-Light;writing-mode:lr-tb;fill:#f26923;fill-opacity:1;fill-rule:nonzero;stroke:none"
     id="text230"><tspan
       x="133.41104 142.41904 152.17905 161.87505 169.66704 178.38704 183.98703 187.87503 197.47504"
       y="559.11621"
       sodipodi:role="line"
       id="tspan228">Education</tspan></text>
<text
     y="587.22394"
     x="90.901794"
     style="font-variant:normal;font-weight:bold;font-size:12px;font-family:'Noto Sans';-inkscape-font-specification:NotoSans-Bold;writing-mode:lr-tb;fill:#000000;fill-opacity:1;fill-rule:nonzero;stroke:none"
     id="text226"><tspan
       x="90.901794 98.821793 106.24979 112.41779 120.3018 127.3938 133.3578 138.5658 145.65779 151.10579 154.2258 158.8938 166.7778 172.74179 177.9498 181.6098 186.81779 194.7018 199.90981"
       y="587.22394"
       sodipodi:role="line"
       id="tspan222">Rochester Institute</tspan><tspan
       x="123.7338 131.16179 135.8058 138.9258 145.0338 152.12579 158.29379 166.1778 174.0618 181.48979 185.1498 192.5778 200.1738"
       y="605.22394"
       sodipodi:role="line"
       id="tspan224">of Technology</tspan></text>
<text
     y="623.22388"
     x="150.0128"
     style="font-variant:normal;font-weight:normal;font-size:9px;font-family:'Century Gothic';-inkscape-font-specification:CenturyGothic;writing-mode:lr-tb;fill:#000000;fill-opacity:1;fill-rule:nonzero;stroke:none"
     id="text220"><tspan
       x="150.0128 157.40179 159.29179 165.52879 169.11079 172.6748 175.23979 181.22479 184.1228 186.68781 191.76379 196.82179 201.8978"
       y="623.22388"
       sodipodi:role="line"
       id="tspan216">Class of 2018</tspan><tspan
       x="123.3008 131.8148 138.0518 144.1808 149.7428 155.9798 158.5448 164.4398 169.9838 178.4978 181.0808 182.9528 189.1898 194.7338 200.9888"
       y="641.22388"
       sodipodi:role="line"
       id="tspan218">magna cum laude</tspan></text>
<text
     y="586.8678"
     x="215.99998"
     style="font-variant:normal;font-weight:normal;font-size:12px;font-family:'Noto Sans';-inkscape-font-specification:NotoSans-Regular;writing-mode:lr-tb;fill:#000000;fill-opacity:1;fill-rule:nonzero;stroke:none"
     id="text214"><tspan
       x="215.99998 220.06798 227.48398 234.86398 242.27998 248.02798 252.35999 257.31598 260.41199 267.14398 270.23999 273.35999 282.12 288.88797 294.63599 297.73199 305.11197 312.52798 315.64798 323.44797 329.43597"
       y="586.8678"
       sodipodi:role="line"
       id="tspan212">Industrial Design BFA</tspan></text>
<text
     y="604.8678"
     x="215.99998"
     style="font-variant:normal;font-weight:normal;font-size:9px;font-family:'Century Gothic';-inkscape-font-specification:CenturyGothic;writing-mode:lr-tb;fill:#000000;fill-opacity:1;fill-rule:nonzero;stroke:none"
     id="text210"><tspan
       x="215.99998 224.71198 230.63399 236.86198 239.42699 246.21298 252.13498 255.71698 257.60696 263.73599 269.29797 271.86298 278.09998 283.66199 289.91699 292.48199 299.26797 305.18997 310.26599 316.18799 318.07797 324.04498 330.27298 338.78699 344.70898 350.27097 353.39398 355.97699 364.31998 366.19199 371.77197 377.73898"
       y="604.8678"
       sodipodi:role="line"
       id="tspan204">Web Design and Development Minor</tspan><tspan
       x="215.99998 224.34299 229.88698 233.46898 235.35898 241.25398 243.81898 249.21898 255.14098 257.92197 260.81998 266.80499 269.58597 278.09998 284.33698 289.89899 295.79398 301.71597 304.28098 312.62399 314.51398 320.07599 326.04297"
       y="622.8678"
       sodipodi:role="line"
       id="tspan206">Music Performance Minor</tspan><tspan
       x="215.99998 223.93797 229.33798 236.06998 238.65298 241.21799 246.27599 248.85898"
       y="640.8678"
       sodipodi:role="line"
       id="tspan208">GPA: 3.7</tspan></text>
<text
     y="686.22388"
     x="120.5052"
     style="font-variant:normal;font-weight:bold;font-size:12px;font-family:'Noto Sans';-inkscape-font-specification:NotoSans-Bold;writing-mode:lr-tb;fill:#000000;fill-opacity:1;fill-rule:nonzero;stroke:none"
     id="text202"><tspan
       x="120.5052 129.38519 136.4772 142.44121 146.1012 153.6972 161.58121 164.7012 172.2372 177.44521 184.8732 188.5332 195.6252 201.7932"
       y="686.22388"
       sodipodi:role="line"
       id="tspan198">Design Project</tspan><tspan
       x="97.621201 104.0892 107.9532 119.2692 122.9292 130.8132 138.6972 144.66119 147.7812 152.4492 160.33321 167.9292 175.8132 181.77721 186.9852 192.4332 196.0932 203.3412"
       y="668.22388"
       sodipodi:role="line"
       id="tspan200">T-Minus Industrial</tspan></text>
<text
     y="704.22388"
     x="110.3551"
     style="font-variant:normal;font-weight:normal;font-size:9px;font-family:'Century Gothic';-inkscape-font-specification:CenturyGothic;writing-mode:lr-tb;fill:#000000;fill-opacity:1;fill-rule:nonzero;stroke:none"
     id="text196"><tspan
       x="110.3551 115.4311 120.5071 125.5651 130.6411 133.2061 135.7711 140.84711 145.9231 150.9991 156.0751 158.64011 161.20509 166.2811 171.3571 176.4151 181.4911 184.05609 186.62109 191.6971 196.7731 201.84911"
       y="704.22388"
       sodipodi:role="line"
       id="tspan194">2015, 2016, 2017, 2018</tspan></text>
<text
     y="667.8678"
     x="215.99998"
     style="font-variant:normal;font-weight:normal;font-size:12px;font-family:'Noto Sans';-inkscape-font-specification:NotoSans-Regular;writing-mode:lr-tb;fill:#000000;fill-opacity:1;fill-rule:nonzero;stroke:none"
     id="text192"><tspan
       x="215.99998 221.83199 228.59998 235.33199 246.55199 249.67198 260.55597 267.28796 274.70398 281.43597 288.81598 295.58398 300.53998 303.65997 307.25998 314.12399 320.98798 327.85199 334.71597"
       y="667.8678"
       sodipodi:role="line"
       id="tspan190">Team Manager (2017)</tspan></text>
<text
     y="685.8678"
     x="215.99998"
     style="font-variant:normal;font-weight:normal;font-size:9px;font-family:'Century Gothic';-inkscape-font-specification:CenturyGothic;writing-mode:lr-tb;fill:#000000;fill-opacity:1;fill-rule:nonzero;stroke:none"
     id="text188"><tspan
       x="215.99998 220.22998 226.15198 232.40698 234.97198 241.20898 243.77399 246.89697 252.83698 259.05597 267.56998 270.15298 276.11996 279.01797 281.58298 287.83798 293.75998 297.34198 299.23199 305.36099 310.92297 313.48798 317.06998 320.19299 325.73697 331.99197 337.91397 343.47598 346.59897 350.18097 352.74597 355.88696 361.85397 364.41898 372.93298 378.85498 384.77698 387.81897"
       y="685.8678"
       sodipodi:role="line"
       id="tspan182">Led a team of design students to meet </tspan><tspan
       x="215.99998 222.25497 228.17699 234.41399 240.66898 242.55898 244.43098 250.01099 255.93298 259.51498 262.07999 269.64899 275.21097 277.10098 278.97299 284.89499 287.47797 290.25897 296.18097 299.30399 305.54099 307.43097 312.99298 314.883 320.44498 326.57397 329.13898 335.06097 339.45297 345.34799 351.26999 353.15997 355.04999 360.97198 366.53397 369.57599"
       y="703.8678"
       sodipodi:role="line"
       id="tspan184">deadlines while retaining excellent </tspan><tspan
       x="215.99998 222.25497 228.17699 231.75899 233.64899 239.77798 245.33998 247.90498 251.48698 254.60999 260.84698 266.40897 272.66397 278.90097 281.68198 287.93698 291.51898"
       y="721.8678"
       sodipodi:role="line"
       id="tspan186">design standards.</tspan></text>
<text
     y="163.12582"
     x="413.93271"
     style="font-variant:normal;font-weight:300;font-size:15.99999905px;font-family:'Noto Sans Light';-inkscape-font-specification:NotoSans-Light;writing-mode:lr-tb;fill:#ffffff;fill-opacity:1;fill-rule:nonzero;stroke:none"
     id="text180"><tspan
       x="413.93271 423.53271 433.13272 439.61273 445.21271 450.31671 459.91672 463.80472 467.69272"
       y="163.12582"
       sodipodi:role="line"
       id="tspan178">Portfolio</tspan></text>
<g
     id="g126"><g
       id="g128"><g
         id="g130"
         clip-path="url(#clipPath134)"><g
           id="g136" /><g
           id="g138"><g
             id="g140"
             clip-path="url(#clipPath144)"><g
               id="g146"><g
                 id="g148"><g
                   id="g150"
                   clip-path="url(#clipPath154)"><g
                     id="g156"><g
                       id="g158"><g
                         id="g160"><g
                           id="g162"
                           clip-path="url(#clipPath166)"><g
                             id="g168"><text
   transform="translate(413.99998,190.20572)"
   style="font-variant:normal;font-weight:normal;font-size:12px;font-family:'Noto Sans';-inkscape-font-specification:NotoSans-Regular;writing-mode:lr-tb;fill:#000000;fill-opacity:1;fill-rule:nonzero;stroke:none"
   id="text176"><tspan
     x="0 9.552 19.104 28.176001 31.511999 39.012001 44.880001 50.759998 58.296001 67.848 74.580002 81.959999 89.339996 96.108002 101.856 104.952 112.332 119.748 122.964 128.724 135.98399"
     y="0"
     sodipodi:role="line"
     id="tspan170">www.dschwabdesign.com</tspan><tspan
     x="0 7.5 13.368 19.247999 26.784 36.335999 43.188 50.688 58.188 65.075996 70.944 74.160004 81.660004 89.195999 100.104 107.604 118.944 125.796 129.01199 132.228 135.564 141.444 148.82401"
     y="27"
     sodipodi:role="line"
     id="tspan172">dschwabdesign@gmail.com</tspan><tspan
     x="0 6.9840002 13.968 20.952 24.288 31.271999 38.256001 45.240002 48.576 55.560001 62.543999 69.528"
     y="54"
     sodipodi:role="line"
     id="tspan174">717·847·2523</tspan></text>

</g></g></g></g></g></g></g></g></g></g></g></g></g><text
     y="280.05807"
     x="413.91629"
     style="font-variant:normal;font-weight:300;font-size:15.99999905px;font-family:'Noto Sans Light';-inkscape-font-specification:NotoSans-Light;writing-mode:lr-tb;fill:#ffffff;fill-opacity:1;fill-rule:nonzero;stroke:none"
     id="text124"><tspan
       x="413.91629 422.82831 430.90829 434.7803 438.6683 442.5563"
       y="280.05807"
       sodipodi:role="line"
       id="tspan122">Skills</tspan></text>
<g
     id="g68"><g
       clip-path="url(#clipPath74)"
       id="g70"><g
         id="g76"><g
           id="g78"><g
             clip-path="url(#clipPath84)"
             id="g80"><g
               id="g86"><g
                 id="g88"><g
                   id="g90"><g
                     clip-path="url(#clipPath96)"
                     id="g92"><g
                       id="g98"><text
   id="text118"
   style="font-variant:normal;font-weight:normal;font-size:12px;font-family:'Noto Sans';-inkscape-font-specification:NotoSans-Regular;writing-mode:lr-tb;fill:#000000;fill-opacity:1;fill-rule:nonzero;stroke:none"
   transform="translate(413.99998,307.86782)"><tspan
     id="tspan100"
     sodipodi:role="line"
     y="0"
     x="0 8.7720003 14.52 21.288 26.243999 29.364 36.035999 42.383999 49.764 56.532001 61.487999 64.584 71.351997 78.767998 84.528 91.295998 94.416 103.176 109.944 115.692 118.788 126.168">User Experience Design</tspan><tspan
     id="tspan102"
     sodipodi:role="line"
     y="27"
     x="0 7.5840001 14.844 22.26 28.02 34.787998 42.167999 46.5 49.619999 58.380001 64.907997 71.003998 77.772003 80.867996 88.127998 95.508003 106.728 113.496 120.912">Concept Development</tspan><tspan
     id="tspan104"
     sodipodi:role="line"
     y="54"
     x="0 10.884 17.615999 25.032 32.448002 39.18 42.276001 45.396 51.984001 58.391998 65.160004 69.491997 75.251999 82.667999 85.764 93.18">Manual Sketching</tspan><tspan
     id="tspan106"
     sodipodi:role="line"
     y="81"
     x="0 8.7600002 11.856 19.236 22.332001 26.664 33.396 36.492001 39.612 50.495998 57.756001 65.136002 71.903999 75 78.096001 85.512001">Digital Modeling</tspan><tspan
     id="tspan108"
     sodipodi:role="line"
     y="108"
     x="0 7.2600002 14.676 20.796 26.544001 29.639999 35.400002 42.132 45.228001 48.348 59.231998 66.491997 73.872002 80.639999 83.736 86.832001 94.248001">Physical Modeling</tspan><tspan
     id="tspan110"
     sodipodi:role="line"
     y="135"
     x="0 8.7360001 13.452 20.184 27.563999 34.98 38.076 43.835999 46.956001 55.716 62.484001 68.232002 71.328003 78.708">Graphic Design</tspan><tspan
     id="tspan112"
     sodipodi:role="line"
     y="162"
     x="0 10.92 17.688 25.068001 28.188 36.972 40.091999 48.863998 52.931999 56.051998 64.811996 71.339996 77.435997 84.204002 87.300003 94.559998 101.94 113.16 119.928 127.344">Web &amp; UI Development</tspan><tspan
     id="tspan114"
     sodipodi:role="line"
     y="189"
     x="0 10.92 17.688 25.068001 30.816 33.911999 38.243999 45.012001 48.132 55.391998 60.108002 67.367996 74.748001 79.463997 86.195999 97.416 108.636 111.732 119.148">Website Programming</tspan><tspan
     id="tspan116"
     sodipodi:role="line"
     y="216"
     x="0 7.5840001 14.844 17.940001 21.035999 27.768 35.147999 42.408001 47.124001 53.855999 58.188 61.284 67.379997 74.148003 77.267998 86.028 92.795998 98.543999 101.64 109.02">Collaborative Design</tspan></text>

</g></g></g></g></g></g></g></g></g></g><g
     id="g62"><text
   id="text66"
   style="font-variant:normal;font-weight:300;font-size:15.99999905px;font-family:'Noto Sans Light';-inkscape-font-specification:NotoSans-Light;writing-mode:lr-tb;fill:#ffffff;fill-opacity:1;fill-rule:nonzero;stroke:none"
   transform="translate(413.92884,559.10114)"><tspan
     id="tspan64"
     sodipodi:role="line"
     y="0"
     x="0 8.9119997 18.511999 23.615999 29.215998 41.167999 49.903996 56.063995">Software</tspan></text>

</g><g
     id="g16"><g
       clip-path="url(#clipPath22)"
       id="g18"><g
         id="g24"><g
           id="g26"><g
             clip-path="url(#clipPath32)"
             id="g28"><g
               id="g34"><g
                 id="g36"><g
                   id="g38"><g
                     clip-path="url(#clipPath44)"
                     id="g40"><g
                       id="g46"><text
   id="text60"
   style="font-variant:normal;font-weight:normal;font-size:12px;font-family:'Noto Sans';-inkscape-font-specification:NotoSans-Regular;writing-mode:lr-tb;fill:#000000;fill-opacity:1;fill-rule:nonzero;stroke:none"
   transform="translate(413.99998,586.9478)"><tspan
     id="tspan48"
     sodipodi:role="line"
     y="0"
     x="0 7.6680002 15.084 19.416 26.676001 34.056 40.824001 46.571999 52.98 56.099998 60.167999 67.584 73.68 80.447998 87.863998 92.195999 99.456001">Autodesk Inventor</tspan><tspan
     id="tspan50"
     sodipodi:role="line"
     y="27"
     x="0 6.5879998 13.848 16.944 20.040001 27.42 36.852001 44.112 49.068001 55.476002">Solidworks</tspan><tspan
     id="tspan52"
     sodipodi:role="line"
     y="54"
     x="0 7.6680002 15.084 19.416 26.676001 34.056 40.824001 46.571999 52.98 56.099998 62.327999 69.744003 75.491997 78.587997 85.848 93.264 96.384003 103.248 110.112">Autodesk Fusion 360</tspan><tspan
     id="tspan54"
     sodipodi:role="line"
     y="81"
     x="0 7.6680002 15.048 22.308001 29.688 36.456001 39.576 47.16 51.875999 58.644001 65.375999 69.708 72.804001 78.900002 85.667999 88.788002 96.372002 99.468002 106.728 114.144">Adobe Creative Cloud</tspan><tspan
     id="tspan56"
     sodipodi:role="line"
     y="108"
     x="0 10.884 13.98 19.74 24.455999 31.716 37.464001 44.723999 48.852001 53.183998 56.304001 65.676003 69.804001 73.931999 77.028 82.788002">Microsoft Office</tspan><tspan
     id="tspan58"
     sodipodi:role="line"
     y="135"
     x="0 8.7360001 15.996 23.256001 30.636 33.731998 40.5 43.619999 50.208 57.624001 60.720001 65.052002">Google Suite</tspan></text>

</g></g></g></g></g></g></g></g></g></g></g></g></svg>